<svg width="327" height="264" viewBox="0 0 327 264" fill="none" xmlns="http://www.w3.org/2000/svg">
<path fill-rule="evenodd" clip-rule="evenodd" d="M12.3499 0C16.7339 1.78814e-07 20.5523 2.42154 22.5406 6.00002H25.4592C27.4475 2.42154 31.2659 -1.78814e-07 35.6499 0C40.0339 1.78814e-07 43.8523 2.42154 45.8405 6.00002H48.7592C50.7475 2.42154 54.5659 -1.78814e-07 58.9499 0C63.3339 1.78814e-07 67.1523 2.42154 69.1405 6.00002H72.0592C74.0474 2.42154 77.8659 -1.78814e-07 82.2499 0C86.6339 1.78814e-07 90.4523 2.42154 92.4405 6.00002H95.3592C97.3474 2.42154 101.166 -1.78814e-07 105.55 0C109.934 1.78814e-07 113.752 2.42154 115.741 6.00002H118.659C120.647 2.42154 124.466 -1.78814e-07 128.85 0C133.234 1.78814e-07 137.052 2.42154 139.04 6.00002H141.959C143.947 2.42154 147.766 -1.78814e-07 152.15 0C156.534 1.78814e-07 160.352 2.42154 162.34 6.00002H165.259C167.247 2.42154 171.066 -1.78814e-07 175.45 0C179.834 1.78814e-07 183.652 2.42154 185.64 6.00002H188.559C190.547 2.42154 194.366 -1.78814e-07 198.75 0C203.134 1.78814e-07 206.952 2.42154 208.94 6.00002H211.859C213.847 2.42154 217.666 -1.78814e-07 222.05 0C226.434 1.78814e-07 230.252 2.42154 232.24 6.00002H235.159C237.147 2.42154 240.966 -1.78814e-07 245.35 0C249.734 1.78814e-07 253.552 2.42154 255.54 6.00002H258.459C260.447 2.42154 264.266 -1.78814e-07 268.65 0C273.034 1.78814e-07 276.852 2.42154 278.84 6.00002H281.759C283.747 2.42154 287.566 -1.78814e-07 291.95 0C296.334 1.78814e-07 300.152 2.42154 302.141 6.00002H305.059C307.047 2.42154 310.866 -1.78814e-07 315.25 0C319.634 1.78814e-07 323.452 2.42154 325.441 6.00002H327V244C327 255.046 318.046 264 307 264H20C8.9543 264 0 255.046 0 244V6.00002H2.15922C4.14747 2.42154 7.96589 -1.78814e-07 12.3499 0Z" fill="white"/>
</svg>
